<svg id="MPS" xmlns="http://www.w3.org/2000/svg" width="100" height="114.286" viewBox="0 0 100 114.286">
  <path id="Caminho_574" data-name="Caminho 574" d="M75.4,24.744a21.783,21.783,0,0,0-1.52-2.31,11.319,11.319,0,0,0-1.521-1.848c-.117,0-6.753,6.5-14.822,14.411C43.828,48.512,42.776,49.465,40.729,50.476a31.771,31.771,0,0,0-3.42,1.964c-1.023.722-4.327,4.91-6.373,8.086l-.526.809,2.017,2.022a14.94,14.94,0,0,0,2.222,1.993c.117,0,1.7-.953,3.508-2.108,3.888-2.513,5.876-4.534,7.572-7.711,1.111-2.137,2.017-3.09,15.494-16.317C70.87,29.74,75.519,25,75.4,24.744Z" transform="translate(-13.033 -8.822)" fill="#fff"/>
  <path id="Caminho_575" data-name="Caminho 575" d="M85.9,8.211C77.221,3.532,68.1,1.049,56.347.24c-16.43-1.184-32.451,2.05-44,8.837-1.374.809-1.462.924-1.4,1.993.023.48.046,1.648.069,2.816.006.307.012.615.018.91.117,6.151-3.157,11.9-8.975,15.739a6.183,6.183,0,0,0-1.7,1.444c-.38.924-.5,9.761-.175,12.851A84.306,84.306,0,0,0,13.225,81.218a100.5,100.5,0,0,0,27.539,28.215c3.362,2.224,8.39,4.852,9.3,4.852s5.116-2.195,8.332-4.3a96.847,96.847,0,0,0,25.99-25.3c9.94-13.862,15.524-30.035,15.611-45.341a61.588,61.588,0,0,0-.175-6.267c-.234-1.3-.351-1.444-2.514-2.917a19.014,19.014,0,0,1-7.63-10.137,21.274,21.274,0,0,1-.5-8.577l.234-1.357Zm-67.27,3.061C25.124,8.153,33.924,5.929,42.9,5.15c2.923-.26,14.851-.173,15.144.087.058.087-.146.491-.5.924-.877,1.1-.76,1.906.526,3.494,1.871,2.31,8.069,8.115,8.917,8.346,1.053.26,1.9-.347,4.064-3,3.04-3.725,4.911-5.545,5.642-5.545a20.367,20.367,0,0,1,4.063,1.559L84.12,12.6v2.772a22.577,22.577,0,0,0,8.653,17.472l2.105,1.733.234,1.935c.79,7.278-2.075,21.2-6.315,30.728a94.292,94.292,0,0,1-27.481,34.685c-4.678,3.7-9.94,6.874-11.343,6.874-1.549,0-6.695-3.293-13.448-8.606-.409-.318.906-1.733,10.32-11.061,5.964-5.891,12.22-11.869,13.974-13.313,1.725-1.444,3.129-2.657,3.129-2.686a8.617,8.617,0,0,0-1.521-.606,23.318,23.318,0,0,1-6.519-3.783l-1.169-1.01,2.514,1.328c3.8,2.022,5.5,2.513,9.179,2.686A19.169,19.169,0,0,0,75.9,70.1c2.749-1.271,3.976-2.57,5.467-5.718a20.637,20.637,0,0,0,2.075-10.31c-.146-2.946-1.2-7.249-1.959-8.057-.5-.52-.555-.462-1.462,1.444-3.186,6.613-5.35,10.714-5.935,11.205-.555.462-.965.52-3.069.347a14.161,14.161,0,0,1-10.115-5.17c-2.193-2.541-2.193-2.541,1.4-9.675,1.7-3.379,3.1-6.325,3.1-6.556,0-.664-.994-.52-3.129.433C55.937,40.9,50.587,46.3,49.155,51.328a11.1,11.1,0,0,0-.234,4.707c.555,6.9.292,8.259-2.368,11.465-.877,1.04-6.052,6.3-11.548,11.7-8.478,8.346-10.028,9.761-10.32,9.386h0c-.207-.262-1.228-1.56-2.279-2.887a86.135,86.135,0,0,1-13.8-25.27A64.291,64.291,0,0,1,4.981,40.21l-.146-5.487,1.549-1.155A24.975,24.975,0,0,0,15.3,20.918a28.007,28.007,0,0,0,.672-4.967l.175-3.466Z" transform="translate(0 0)" fill="#fff" fill-rule="evenodd"/>
</svg>
