<svg id="off" xmlns="http://www.w3.org/2000/svg" width="10" height="10" viewBox="0 0 10 10">
  <path id="Caminho_776" data-name="Caminho 776" d="M5,10A4.985,4.985,0,0,1,.669,7.51,4.912,4.912,0,0,1,0,5,4.933,4.933,0,0,1,1.289,1.66L1.4,1.543q.083-.088.137-.142a.6.6,0,0,1,.146-.1.4.4,0,0,1,.19-.049.6.6,0,0,1,.439.186.6.6,0,0,1,.186.439.981.981,0,0,1-.034.273.386.386,0,0,1-.073.156l-.029.049a3.72,3.72,0,0,0-.82,1.2A3.631,3.631,0,0,0,1.25,5a3.672,3.672,0,0,0,.5,1.88A3.722,3.722,0,0,0,3.12,8.247a3.765,3.765,0,0,0,3.76,0A3.722,3.722,0,0,0,8.247,6.88a3.752,3.752,0,0,0,.21-3.33,3.782,3.782,0,0,0-.811-1.206A.642.642,0,0,1,7.5,1.875a.6.6,0,0,1,.186-.439.6.6,0,0,1,.439-.186.446.446,0,0,1,.132.02.686.686,0,0,1,.1.039.5.5,0,0,1,.1.078.943.943,0,0,1,.083.083q.02.024.088.1l.078.088A4.971,4.971,0,0,1,9.6,6.943,4.892,4.892,0,0,1,6.943,9.6,4.905,4.905,0,0,1,5,10ZM5,5a.617.617,0,0,1-.625-.625V.625A.6.6,0,0,1,4.561.181.614.614,0,0,1,5,0a.6.6,0,0,1,.439.181.6.6,0,0,1,.181.444v3.75A.617.617,0,0,1,5,5Z" fill="#2f72cf"/>
</svg>
